<?xml version="1.0" encoding="UTF-8"?>
<svg width="428px" height="58px" viewBox="0 0 428 58" version="1.1" xmlns="http://www.w3.org/2000/svg" xmlns:xlink="http://www.w3.org/1999/xlink">
    <!-- Generator: Sketch 51.3 (57544) - http://www.bohemiancoding.com/sketch -->
    <title>Freedom.next()</title>
    <desc>Created with Sketch.</desc>
    <defs></defs>
    <g id="Page-1" stroke="none" stroke-width="1" fill="none" fill-rule="evenodd">
        <path d="M33.2901999,13.6146002 L19.9588007,13.6145993 L18.7402008,20.5271997 L29.9824005,20.5271997 L28.3798001,29.6166 L17.1376004,29.6166 L14.425,45 L0.865,45 L8.27079956,3 L35.1357996,3 L33.2901999,13.6146002 Z M57.4078003,15.4853998 L57.4072006,15.4854007 C58.5544003,15.4854007 59.7670007,15.664801 61.0708005,16.0320007 L58.0054007,25.7904007 C55.7092004,25.2552008 54.8542004,25.1976004 54.1396002,25.1976004 C50.5324005,25.1976004 48.0442004,27.3090005 47.4184009,30.7506006 L44.9056006,45.0000009 L33.7726004,45.0000009 L37.1518008,25.8360013 C37.1950009,25.5924014 37.2160013,25.3650018 37.2160013,25.1538016 C37.2160013,23.9988016 36.5740015,23.3256015 35.2924014,23.1378012 L34.8730011,23.0742014 L36.1168008,16.0200009 L45.3952008,16.0200009 C47.4754007,16.0200009 48.5668008,16.8846011 48.5668008,18.5070007 C48.5668008,18.7086008 48.5500009,18.9222006 48.5158005,19.1472006 L48.4120007,19.7478003 C50.9008005,16.9548001 54.0256006,15.4853998 57.4078003,15.4853998 Z M79.2027994,15.4091995 C85.4241995,15.4091995 89.1903998,17.8613992 89.5714001,21.3995993 C89.6026004,21.6869989 89.6182001,21.9779993 89.6182001,22.2713992 C89.6182001,25.3589996 87.8914001,28.7087997 84.0376004,30.5964001 C79.7524005,32.6969998 74.8510004,33.4098001 70.9498001,33.7962003 C70.8562003,36.3060004 73.4038007,37.8294003 77.3254007,37.8294003 C79.8520007,37.8294003 82.6420007,37.3188007 85.4176004,36.3756006 L85.8460004,42.3174005 C82.1644003,44.4984009 77.7514001,45.4806006 73.0192004,45.4806006 C64.6354007,45.4806006 59.9254007,41.0124005 59.9254007,33.7938007 C59.9254007,32.7312003 60.0274005,31.6092004 60.2344003,30.4326004 C61.8682001,21.1686008 69.0598001,15.4092004 79.2028003,15.4092004 L79.2027994,15.4091995 Z M76.7913992,22.3451999 L76.7913992,22.3446002 C74.2455997,22.3446002 72.5595993,24.3810004 72.1089996,26.94 L72.0261993,27.5621997 C73.3473996,27.4493994 75.8205997,27.2789996 77.5041995,26.4485999 C78.6357996,25.8905997 79.2291995,24.9498001 79.2291995,24.0605997 C79.2291995,23.3807996 78.8373996,22.3451999 76.7913992,22.3451999 Z M110.042799,15.4091995 C116.2642,15.4091995 120.0304,17.8613992 120.4114,21.3995993 C120.4426,21.6869989 120.4582,21.9779993 120.4582,22.2713992 C120.4582,25.3589996 118.7314,28.7087997 114.8776,30.5964001 C110.592401,32.6969998 105.691,33.4098001 101.7898,33.7962003 C101.6962,36.3060004 104.243801,37.8294003 108.165401,37.8294003 C110.692001,37.8294003 113.482001,37.3188007 116.2576,36.3756006 L116.686,42.3174005 C113.0044,44.4984009 108.5914,45.4806006 103.8592,45.4806006 C95.4754007,45.4806006 90.7654007,41.0124005 90.7654007,33.7938007 C90.7654007,32.7312003 90.8674005,31.6092004 91.0744003,30.4326004 C92.7082001,21.1686008 99.8998001,15.4092004 110.0428,15.4092004 L110.042799,15.4091995 Z M107.631399,22.3451999 L107.631399,22.3446002 C105.0856,22.3446002 103.399599,24.3810004 102.949,26.94 L102.866199,27.5621997 C104.1874,27.4493994 106.6606,27.2789996 108.3442,26.4485999 C109.4758,25.8905997 110.0692,24.9498001 110.0692,24.0605997 C110.0692,23.3807996 109.6774,22.3451999 107.631399,22.3451999 Z M151.8322,34.1807996 L151.646802,35.4426004 C151.619802,35.6322006 151.606602,35.8104007 151.606602,35.9778003 C151.606602,37.0667999 152.179602,37.6962003 153.364602,37.8978003 L153.766002,37.9464001 L151.278402,45 L146.300801,45 C143.800602,45 142.331201,44.0273996 141.518201,41.8355997 L141.398801,41.46 C138.4012,44.1744003 134.905,45.48 131.6002,45.48 C125.9248,45.48 121.5496,41.5812003 121.5496,34.2869998 C121.5496,33.1230002 121.660601,31.8726004 121.8964,30.5376004 C123.6418,20.6388007 129.5566,15.3072006 136.5688,15.3072006 C139.4392,15.3072006 142.0384,16.1526004 143.6326,18.1560004 L146.305,3 L157.3324,3 L151.8322,34.1807996 Z M140.458602,36.1596002 L142.436804,24.9377994 C141.638204,24.5759995 139.646804,24.4025995 138.208604,24.4025995 C135.305204,24.4025995 133.492603,27.0155997 132.871603,30.5375995 C132.743802,31.2617999 132.677802,31.9403998 132.677802,32.5632001 C132.677802,35.0532001 133.727202,36.6432001 136.050403,36.6432001 C137.529402,36.6432001 139.442802,36.4812003 140.458602,36.1596002 Z M176.2414,15.4314001 L176.241401,15.4319998 C185.295401,15.4319998 189.4126,19.4448001 189.4126,26.5019998 C189.4126,27.7482001 189.2842,29.0898001 189.032201,30.5208005 C187.351,40.0542004 181.5748,45.6006006 170.9218,45.6006006 C161.8678,45.6006006 157.7494,41.5938007 157.7494,34.5378003 C157.7494,33.2916 157.8778,31.9512003 158.1298,30.5201999 C159.811,20.9867999 165.5884,15.4314001 176.2414,15.4314001 Z M174.669401,24.1823996 L174.669399,24.1829993 C171.5974,24.1829993 169.8838,26.2427994 169.1248,30.5453998 C168.9604,31.4784 168.8764,32.3003998 168.8764,33.0161993 C168.8764,35.6591995 170.0176,36.8501999 172.435601,36.8501999 C175.454801,36.8501999 177.256001,34.9266 178.028802,30.5448001 C178.183002,29.6694003 178.260402,28.8864001 178.260402,28.1951999 C178.260402,25.4891995 177.074201,24.1823996 174.669401,24.1823996 Z M216.217003,15.403797 C219.280003,15.403797 221.570203,16.6931973 222.794202,19.2641977 C225.889002,17.291998 228.989202,15.9215982 231.890203,15.5231982 C232.463203,15.4445984 233.027803,15.4037988 233.583403,15.4037988 C238.537603,15.4037988 241.553203,18.4613992 241.553203,24.4337988 C241.553203,25.6385989 241.430803,26.9615991 241.176403,28.4021988 L239.993802,35.110199 C239.949402,35.3615991 239.927202,35.5955988 239.927202,35.813399 C239.927202,36.9977994 240.581803,37.6889996 241.887402,37.8821997 L242.259402,37.9469998 L241.015602,45.0005997 L235.573603,45 C230.872003,44.9939996 228.410203,42.8195993 228.410203,38.7419989 C228.410203,38.0537988 228.480403,37.3115991 228.621403,36.5159995 L230.052403,28.4021997 C230.102803,28.1184 230.128003,27.8519998 230.128003,27.6041995 C230.126803,26.2925995 229.396603,25.4921997 227.840803,25.4975995 C226.407403,25.4975995 224.945803,26.2823996 223.647403,27.2621997 L223.331203,29.2787997 L220.567003,45 L209.434002,45 L212.360802,28.4021997 C212.410602,28.1214001 212.435203,27.8580002 212.435203,27.6126004 C212.434002,26.2902008 211.693603,25.4874005 210.153403,25.4922006 C208.692402,25.4922006 207.212802,26.3112003 205.975002,27.3822006 L202.868802,45.0000009 L191.735801,45.0000009 L195.141401,25.6860013 C195.181601,25.4568008 195.202001,25.2420007 195.202001,25.0428003 C195.202001,23.9592004 194.603201,23.3244003 193.403801,23.1366 L192.844001,23.0735999 L194.0878,16.02 L205.5046,16.02 C207.055,16.02 207.7936,16.8966 207.5908,18.2166 L207.5452,18.4805997 C210.262,16.6637997 213.2914,15.4037997 216.217,15.4037997 L216.217003,15.403797 Z M254.2786,45 L243.1084,45 L244.6516,36.2496002 L255.8212,36.2496002 L254.2786,45 Z M284.901366,15.4300956 C286.261234,15.4038016 287.09117,15.4038016 284.158602,15.4038016 C284.410766,15.4038016 284.658445,15.4125465 284.901366,15.4300956 Z M284.901366,15.4300956 C289.062269,15.7306875 291.827202,18.6143296 291.827202,24.3786008 C291.827202,25.5912012 291.704802,26.931601 291.447402,28.4028012 L290.264202,35.1114011 C290.219802,35.3628012 290.197602,35.5968008 290.197602,35.8146011 C290.197602,37.0014011 290.855203,37.6920007 292.165602,37.8834009 L292.522003,37.9458005 L291.278203,45.0000009 L285.846403,45.0000009 C281.138203,44.9958005 278.674603,42.8178003 278.674603,38.7324005 C278.674603,38.0478003 278.743603,37.3092004 278.883403,36.5190005 L280.314403,28.4022006 C280.361203,28.1262003 280.385203,27.8664001 280.385203,27.6246002 C280.384002,26.295 279.651402,25.4873996 278.107002,25.4921997 C276.582401,25.4921997 274.908402,26.3453998 273.713802,27.3905997 L270.608802,45 L259.475801,45.0000009 L262.881401,25.6866 C262.921601,25.4567999 262.942001,25.2425995 262.942001,25.043399 C262.942001,23.9597992 262.3426,23.3243994 261.143801,23.1365991 L260.584001,23.0741995 L261.8278,16.0199991 L273.2446,16.0199991 C274.795,16.0199991 275.533,16.8965991 275.3302,18.2165991 L275.2834,18.4877994 C277.105,17.275199 281.041,16.0577994 281.041,15.8141995 C281.041,15.7523996 280.786,15.7535999 282.6898,15.5028003 L282.689201,15.5034018 C283.215976,15.4676954 284.14142,15.4447897 284.901366,15.4300956 Z M315.062799,15.4091995 C321.2842,15.4091995 325.0504,17.8613992 325.4314,21.3995993 C325.4626,21.6869989 325.4782,21.9779993 325.4782,22.2713992 C325.4782,25.3589996 323.7514,28.7087997 319.8976,30.5964001 C315.612401,32.6969998 310.711,33.4098001 306.8098,33.7962003 C306.7162,36.3060004 309.263801,37.8294003 313.185401,37.8294003 C315.712001,37.8294003 318.502001,37.3188007 321.2776,36.3756006 L321.706,42.3174005 C318.0244,44.4984009 313.6114,45.4806006 308.8792,45.4806006 C300.495401,45.4806006 295.785401,41.0124005 295.785401,33.7938007 C295.785401,32.7312003 295.887401,31.6092004 296.0944,30.4326004 C297.7282,21.1686008 304.9198,15.4092004 315.0628,15.4092004 L315.062799,15.4091995 Z M312.651399,22.3451999 L312.651399,22.3446002 C310.1056,22.3446002 308.419599,24.3810004 307.969,26.94 L307.886199,27.5621997 C309.2074,27.4493994 311.6806,27.2789996 313.3642,26.4485999 C314.4958,25.8905997 315.0892,24.9498001 315.0892,24.0605997 C315.0892,23.3807996 314.6974,22.3451999 312.651399,22.3451999 Z M348.0388,30.4632001 L354.761201,45 L343.655201,45 L340.452401,37.3734 L334.6132,45 L323.5072,45 L335.302599,30.4632001 L328.731399,16.02 L339.836799,16.02 L342.898599,23.5001999 L348.650199,16.02 L359.756199,16.02 L348.0388,30.4632001 Z M376.738,16.02 L382.1104,16.0206024 L380.499399,25.1550027 L375.127,25.1550027 L373.5268,34.2288025 C373.4848,34.4676022 373.4656,34.6812021 373.4656,34.8732019 C373.4656,35.8302017 373.9468,36.2454016 374.5036,36.4908014 C374.8606,36.6474014 375.319,36.7062012 375.8182,36.7062012 C376.7044,36.7062012 377.7196,36.5196011 378.5242,36.358201 L377.011,45.0000009 C374.8966,45.7200009 372.8068,46.0200009 370.774,45.9000009 C365.23,45.8004007 361.9738,44.3208005 361.9738,38.4378003 C361.9738,37.2294003 362.111199,35.835 362.394399,34.2282001 L363.994,25.1544003 L359.711199,25.1544003 L361.3222,16.02 L365.605,16.02 L368.7712,8.29079956 L378.100601,8.29079956 L376.738,16.02 Z M401.2912,0.19440033 L408.168399,5.64059875 C403.604199,10.3787988 400.523799,14.6357986 398.096198,19.1165982 C396.030399,22.9295984 395.129799,26.1443985 394.6624,28.9637988 C394.3702,30.5249991 394.1686,32.206799 394.1686,34.0427994 C394.1686,35.5235989 394.3,37.105199 394.621,38.8043994 C395.4832,43.3061993 397.0702,47.6405997 400.0054,52.3805997 L391.0768,57.6005997 C387.1696,51.0005997 385.189001,45.4805997 384.448,41.5451999 C383.9914,39.1241995 383.8168,36.9125995 383.8168,34.9223996 C383.8168,32.6387997 384.0466,30.6467999 384.346,28.9637997 C384.8968,25.8137997 386.071,21.5814001 388.885,16.3824005 C391.0246,12.4338007 394.988801,6.82620026 401.2912,0.19440033 Z M411.1666,5.63940033 L419.963201,0.193801575 C423.926201,6.8256015 425.913401,12.4326013 426.660401,16.3812012 C427.117001,18.8028012 427.292201,21.0144012 427.292201,23.0046011 C427.292201,25.288201 427.061801,27.2802008 426.763001,28.963201 C426.211601,32.113201 425.038001,36.3456006 422.224001,41.5446002 C420.090402,45.48 416.162801,51 409.930001,57.6 L402.855401,52.38 C407.446,47.64 410.5678,43.3055997 413.0176,38.8037997 C415.0792,34.9980002 415.9798,31.7832001 416.4472,28.9632001 C416.7388,27.4037997 416.9404,25.7237997 416.9404,23.8884 C416.9404,22.4046002 416.8084,20.82 416.4862,19.1153998 C415.6384,14.6351999 414.0598,10.3782001 411.1666,5.63940033 Z" id="Freedom.next()" fill="#FFFFFF"></path>
    </g>
</svg>