<svg xmlns="http://www.w3.org/2000/svg" width="550" height="189"><path fill="#FFF" fill-rule="evenodd" d="M292.88 107.935h22.28l-7.501-22.097c-.482-1.402-1.053-3.056-1.702-4.959-.662-1.9-1.304-3.956-1.938-6.174-.592 2.253-1.21 4.341-1.843 6.263a87.281 87.281 0 0 1-1.797 4.977l-7.5 21.987v.003zm52.412 30.85H330.62c-1.645 0-2.994-.383-4.066-1.14-1.059-.755-1.796-1.726-2.206-2.907l-4.815-14.065h-31.022l-4.821 14.065c-.366 1.033-1.097 1.969-2.175 2.797-1.084.832-2.41 1.248-3.98 1.248H262.75l31.586-80.697h19.371l31.586 80.703v-.003zm66.153-32.517a96.346 96.346 0 0 1 1.985 4.662 82.398 82.398 0 0 1 2.017-4.74c.71-1.534 1.437-3.024 2.184-4.46l20.94-40.806c.379-.705.757-1.25 1.151-1.638.39-.387.832-.674 1.314-.86.485-.189 1.04-.277 1.651-.277h16.608v80.64h-16.686V92.371c0-2.25.11-4.694.334-7.308l-21.612 41.479c-.671 1.291-1.576 2.268-2.717 2.936-1.14.661-2.436.995-3.892.995h-2.571c-1.456 0-2.751-.328-3.892-.992-1.144-.662-2.048-1.638-2.723-2.936l-21.722-41.54a67.519 67.519 0 0 1 .444 7.369v46.415h-16.686v-80.64h16.605c.61 0 1.166.088 1.648.274.485.19.923.473 1.314.863.394.388.775.933 1.15 1.638l20.997 40.97a83.256 83.256 0 0 1 2.156 4.378l.003-.004zm95.889-8.577h9.854c4.926 0 8.471-1.166 10.64-3.49 2.164-2.325 3.245-5.576 3.245-9.746 0-1.843-.277-3.528-.838-5.04a10.35 10.35 0 0 0-2.546-3.906c-1.144-1.084-2.585-1.928-4.318-2.52-1.733-.59-3.8-.882-6.186-.882h-9.854v25.587l.003-.003zm0 14.121v26.97h-18.927v-80.69h28.781c5.748 0 10.683.674 14.812 2.016 4.122 1.355 7.522 3.207 10.188 5.576 2.669 2.362 4.642 5.147 5.909 8.357 1.27 3.213 1.903 6.684 1.903 10.414 0 4.025-.655 7.717-1.96 11.081a22.336 22.336 0 0 1-5.994 8.638c-2.688 2.4-6.095 4.274-10.22 5.62-4.122 1.354-9.003 2.022-14.64 2.022h-9.855l.003-.004zM128.178 85.847l-40.041 65.97h-7.255l7.173-42.988-22.21.032h-.316c-1.995 0-3.618-1.607-3.618-3.582 0-.85.8-2.29.8-2.29l39.91-65.898 7.373.032-7.349 43.054 22.324-.025.353-.007c2.002 0 3.624 1.607 3.624 3.591 0 .8-.315 1.506-.772 2.105l.004.006zM95.448 0C42.732 0 0 42.31 0 94.5 0 146.696 42.732 189 95.448 189c52.722 0 95.454-42.308 95.454-94.5 0-52.19-42.732-94.5-95.454-94.5z"/></svg>
