<?xml version="1.0" encoding="UTF-8"?>
<svg width="800px" height="102px" viewBox="0 0 800 102" version="1.1" xmlns="http://www.w3.org/2000/svg" xmlns:xlink="http://www.w3.org/1999/xlink">
    <!-- Generator: Sketch 49.2 (51160) - http://www.bohemiancoding.com/sketch -->
    <title>netshoes</title>
    <desc>Created with Sketch.</desc>
    <defs></defs>
    <g id="netshoes" stroke="none" stroke-width="1" fill="none" fill-rule="evenodd">
        <path d="M728.655105,52.269034 C721.732054,47.9421272 707.5398,39.2883137 715.674385,18.8653135 C720.347444,7.44227967 727.9628,2.07691517 747.693495,2.07691517 L797.020232,2.07691517 C799.4433,2.07691517 800.481758,3.63460162 799.789453,6.05766937 L798.750995,9.17304227 C795.635622,19.3845423 792.866402,23.5383727 780.751063,23.5383727 L743.712741,23.5383727 C740.424292,23.5383727 738.347376,25.0960592 738.347376,27.6922032 C738.347376,29.7691185 739.731987,30.8075761 742.501207,32.7114151 L770.020334,50.3651948 C779.539529,56.4228643 790.443334,64.7305253 783.001054,83.7689152 C777.63569,97.0957881 769.501105,100.384237 753.058859,100.384237 L698.885986,100.384237 C696.116766,100.384237 695.424461,98.8265509 696.289842,96.0573305 L697.155224,93.2881102 C700.270597,82.7304577 703.559046,78.9227797 715.155156,78.9227797 L754.962698,78.9227797 C758.251148,78.9227797 760.328063,77.5381696 760.328063,74.9420256 C760.328063,72.8651102 758.943453,71.8266527 756.174232,69.9228136 L728.655105,52.269034 Z M48.292282,25.9614408 C48.1192057,24.230678 47.7730531,23.538373 46.0422905,23.538373 C44.3115278,23.538373 43.7922991,24.2306782 43.2730702,25.9614408 L27.5231296,85.8458307 C24.7539092,96.4034833 21.1193075,100.211161 9.52319733,100.211161 L2.94629896,100.211161 C0.177078633,100.211161 -0.515226517,98.6534747 0.350154921,95.8842544 L20.4270025,22.326839 C24.2346804,7.96150853 30.8115787,1.38461016 50.0230449,1.38461016 C63.1768415,1.38461016 69.234511,4.67305935 70.2729686,21.9806864 L73.734494,76.3266357 C73.9075703,78.0573984 74.0806466,78.7497035 75.9844855,78.7497035 C77.5421719,78.7497035 78.2344769,78.0573983 78.7537058,76.3266357 L94.157494,16.4422458 C96.9267143,5.88459322 100.38824,2.07691531 111.98435,2.07691531 L118.734324,2.07691531 C121.503545,2.07691531 122.19585,3.63460176 121.330469,6.40382208 L101.599774,79.9612375 C97.7920956,94.3265679 91.2151973,100.903466 72.1768074,100.903466 C58.6768583,100.903466 52.4461125,97.6150171 51.4076549,80.30739 L48.4653583,25.9614408 L48.292282,25.9614408 Z M332.48352,52.269034 C325.560469,47.9421272 311.368215,39.2883137 319.502799,18.8653135 C324.175859,7.44227967 331.791215,2.07691517 351.52191,2.07691517 L400.848647,2.07691517 C403.271715,2.07691517 404.310172,3.63460162 403.617867,6.05766937 L402.57941,9.17304227 C399.464037,19.3845423 396.694817,23.5383727 384.579478,23.5383727 L347.541155,23.5383727 C344.252706,23.5383727 342.175791,25.0960592 342.175791,27.6922032 C342.175791,29.7691185 343.560401,30.8075761 346.329622,32.7114151 L373.848749,50.3651948 C383.367944,56.4228643 394.271749,64.7305253 386.829469,83.7689152 C381.464105,97.0957881 373.32952,100.384237 356.887274,100.384237 L302.714401,100.384237 C299.945181,100.384237 299.252876,98.8265509 300.118257,96.0573305 L300.983638,93.2881102 C304.099011,82.7304577 307.387461,78.9227797 318.983571,78.9227797 L358.791113,78.9227797 C362.079562,78.9227797 364.156477,77.5381696 364.156477,74.9420256 C364.156477,72.8651102 362.771867,71.8266527 360.002647,69.9228136 L332.48352,52.269034 Z M312.579748,2.07691531 C315.348969,2.07691531 316.041274,3.80767805 315.175892,6.40382208 L314.310511,9.17304241 C311.195138,19.730695 307.906689,23.5383729 296.310579,23.5383729 L292.675977,23.5383729 C278.829875,23.5383729 275.714503,28.5575848 272.079901,42.4036864 L260.483791,86.0189068 C257.541494,96.7496357 254.079969,100.384237 242.483859,100.384237 L234.176198,100.384237 C231.406977,100.384237 230.714672,98.8265509 231.580054,96.0573305 L249.753062,28.2114321 C250.618443,25.2691355 249.926138,23.8845253 247.156918,23.8845253 L219.118562,23.8845253 C216.349342,23.8845253 215.657037,22.3268389 216.522418,19.5576185 L217.387799,16.7883982 C220.503172,6.23074566 223.791621,2.42306775 235.214655,2.42306775 L312.406672,2.42306775 L312.579749,2.07691517 L312.579748,2.07691531 Z M488.42524,85.8458307 C485.482944,96.4034833 482.021418,100.211161 470.425308,100.211161 L462.117647,100.211161 C459.348427,100.211161 458.656121,98.6534747 459.521503,95.8842544 L468.00224,64.2112967 C468.867621,61.2690001 468.175316,59.8843899 465.406096,59.8843899 L444.81002,59.8843899 C430.963918,59.8843899 427.675469,64.9036018 424.040867,78.7497035 L422.137028,86.1919831 C419.367808,96.922712 415.733206,100.557314 404.137096,100.557314 L395.829435,100.557314 C393.060215,100.557314 392.36791,98.9996272 393.233291,96.2304068 L414.694749,16.7883982 C417.637045,6.23074566 421.098571,2.42306775 432.521605,2.42306775 L440.829266,2.42306775 C443.598486,2.42306775 444.290791,3.9807542 443.42541,6.74997452 L435.810054,34.7883305 C434.944672,37.7306271 435.636977,39.1152372 438.406198,39.1152372 L459.17535,39.1152372 C473.021452,39.1152372 476.136825,34.0960253 479.771427,20.2499237 L480.809884,16.6153219 C483.579105,5.88459308 487.213706,2.24999146 498.809816,2.24999146 L507.117477,2.24999146 C509.886698,2.24999146 510.579003,3.80767791 509.713621,6.57689823 L488.42524,86.0189068 L488.42524,85.8458306 L488.42524,85.8458307 Z M705.289808,2.07691531 C708.059029,2.07691531 708.751334,3.63460176 707.885952,6.40382208 L707.366723,8.48073739 C704.424427,19.2114662 700.962901,22.6729917 689.539868,22.6729917 L661.328435,22.6729917 C652.328469,22.6729917 649.559249,25.6152883 647.482334,33.7498732 L647.136181,35.3075596 C646.2708,38.2498562 646.963105,39.6344664 649.732325,39.6344664 L688.674486,39.6344664 C691.443706,39.6344664 692.136012,41.1921528 691.27063,43.9613731 L690.751401,46.0382885 C687.809105,56.7690173 684.520655,60.4036189 672.924545,60.4036189 L651.116935,60.4036189 C642.116969,60.4036189 639.174672,63.3459155 637.097757,71.4805004 L636.232376,74.7689495 C635.540071,77.7112462 636.0593,79.0958563 638.82852,79.0958563 L689.193715,79.0958563 C691.962935,79.0958563 692.65524,80.6535428 691.789859,83.4227631 L691.27063,85.4996784 C688.328333,96.2304073 684.866808,99.8650089 673.443774,99.8650089 L608.713248,99.8650089 C605.944028,99.8650089 605.251723,98.3073224 606.117104,95.5381021 L623.94396,28.7306614 C629.309325,8.82689011 637.270833,1.73076302 657.693833,1.73076302 L705.289808,1.73076302 L705.289808,2.07691559 L705.289808,2.07691531 Z M209.772443,2.07691531 C212.541663,2.07691531 213.233969,3.63460176 212.368587,6.40382208 L211.849358,8.48073739 C208.907062,19.2114662 205.445536,22.6729917 194.022502,22.6729917 L165.81107,22.6729917 C156.811104,22.6729917 154.041884,25.6152883 151.964968,33.7498732 L151.618816,35.3075596 C150.753434,38.2498562 151.445739,39.6344664 154.21496,39.6344664 L193.157121,39.6344664 C195.926341,39.6344664 196.618646,41.1921528 195.753265,43.9613731 L195.234036,46.0382885 C192.291739,56.7690173 189.00329,60.4036189 177.40718,60.4036189 L155.59957,60.4036189 C146.599604,60.4036189 143.657307,63.3459155 141.580392,71.4805004 L140.715011,74.7689495 C140.022705,77.7112462 140.541934,79.0958563 143.311155,79.0958563 L193.67635,79.0958563 C196.44557,79.0958563 197.137875,80.6535428 196.272494,83.4227631 L195.753265,85.4996784 C192.810968,96.2304073 189.349443,99.8650089 177.926409,99.8650089 L113.195883,99.8650089 C110.426663,99.8650089 109.734358,98.3073224 110.599739,95.5381021 L128.426595,28.7306614 C133.79196,8.82689011 141.753468,1.73076302 162.176468,1.73076302 L209.772443,1.73076302 L209.772443,2.07691559 L209.772443,2.07691531 Z M580.32874,50.7113475 C585.867181,30.9806525 586.213333,21.4614577 563.194189,21.4614577 C547.444249,21.4614577 542.425037,25.7883645 535.501986,51.0575001 C529.963545,70.7881951 529.444316,80.3073899 552.290384,80.3073899 C569.078783,80.3073899 573.578766,75.288178 580.501817,50.7113475 L580.32874,50.7113475 Z M509.367469,48.9805848 C519.578969,8.30766097 538.790435,0 566.136486,0 C610.270935,0 614.424766,21.634534 606.463257,52.7882628 C596.770986,90.8650426 580.155664,101.768848 549.001935,101.768848 C508.329011,101.768848 500.713655,83.2496865 509.367469,48.9805848 L509.367469,48.9805848 Z" id="svg_1" fill="#FFFFFF" fill-rule="nonzero"></path>
    </g>
</svg>